<?xml version="1.0" encoding="UTF-8" standalone="no"?><!DOCTYPE svg PUBLIC "-//W3C//DTD SVG 1.1//EN" "http://www.w3.org/Graphics/SVG/1.1/DTD/svg11.dtd"><svg width="100%" height="100%" viewBox="0 0 41 40" version="1.1" xmlns="http://www.w3.org/2000/svg" xmlns:xlink="http://www.w3.org/1999/xlink" xml:space="preserve" xmlns:serif="http://www.serif.com/" style="fill-rule:evenodd;clip-rule:evenodd;stroke-linejoin:round;stroke-miterlimit:2;"><rect id="Favicon" x="0.254" y="-0" width="40" height="40" style="fill:none;"/><path d="M40.254,4l0,32c0,2.208 -1.792,4 -4,4l-32,-0c-2.208,-0 -4,-1.792 -4,-4l0,-32c0,-2.208 1.792,-4 4,-4l32,-0c2.208,-0 4,1.792 4,4Z" style="fill:#2f2f2f;"/><path d="M5.254,11.574c0,3.642 2.895,6.537 6.537,6.537c3.642,-0 6.556,-2.895 6.556,-6.537c-0,-3.642 -2.914,-6.574 -6.556,-6.574c-3.642,0 -6.537,2.932 -6.537,6.574Zm2.914,-0c-0,-2.003 1.639,-3.66 3.623,-3.66c2.003,-0 3.642,1.657 3.642,3.66c0,1.985 -1.639,3.623 -3.642,3.623c-1.984,0 -3.623,-1.638 -3.623,-3.623Z" style="fill:#f1bb72;fill-rule:nonzero;"/><path d="M20.791,17.528c-0.037,0.237 0.127,0.401 0.346,0.401l2.148,-0c0.182,-0 0.328,-0.146 0.346,-0.291l0.801,-5.627l0.037,-0l3.077,5.9c0.055,0.109 0.201,0.2 0.31,0.2l0.328,-0c0.091,-0 0.255,-0.091 0.309,-0.2l3.059,-5.9l0.037,-0l0.819,5.627c0.019,0.145 0.182,0.291 0.346,0.291l2.149,-0c0.219,-0 0.382,-0.164 0.346,-0.401l-2.058,-12.237c-0.018,-0.164 -0.182,-0.291 -0.327,-0.291l-0.292,-0c-0.091,-0 -0.255,0.073 -0.309,0.182l-4.225,7.867l-0.036,-0l-4.225,-7.867c-0.055,-0.109 -0.219,-0.182 -0.31,-0.182l-0.291,-0c-0.146,-0 -0.31,0.127 -0.328,0.291l-2.057,12.237Z" style="fill:#f1bb72;fill-rule:nonzero;"/><path d="M6.338,34.472c-0,0.182 0.163,0.346 0.346,0.346l2.167,-0c0.2,-0 0.346,-0.164 0.346,-0.346l-0,-6.792l0.018,-0l7.193,7.229c0.036,0.036 0.182,0.091 0.236,0.091l0.292,0c0.182,0 0.346,-0.146 0.346,-0.328l-0,-12.255c-0,-0.182 -0.164,-0.346 -0.346,-0.346l-2.186,0c-0.2,0 -0.345,0.164 -0.345,0.346l-0,6.465l-0.019,-0l-7.265,-6.993l-0.456,0c-0.182,0 -0.346,0.146 -0.346,0.328l0.019,12.255Z" style="fill:#f1bb72;fill-rule:nonzero;"/><path d="M26.581,34.654c0,0.182 0.164,0.346 0.346,0.346l2.185,0c0.182,0 0.346,-0.164 0.346,-0.346l0,-12.055c0,-0.182 -0.164,-0.346 -0.346,-0.346l-2.185,0c-0.182,0 -0.346,0.164 -0.346,0.346l0,12.055Z" style="fill:#f1bb72;fill-rule:nonzero;"/></svg>