<?xml version="1.0" encoding="UTF-8" standalone="no"?><!DOCTYPE svg PUBLIC "-//W3C//DTD SVG 1.1//EN" "http://www.w3.org/Graphics/SVG/1.1/DTD/svg11.dtd"><svg width="100%" height="100%" viewBox="0 0 151 25" version="1.1" xmlns="http://www.w3.org/2000/svg" xmlns:xlink="http://www.w3.org/1999/xlink" xml:space="preserve" xmlns:serif="http://www.serif.com/" style="fill-rule:evenodd;clip-rule:evenodd;stroke-linejoin:round;stroke-miterlimit:2;"><rect id="Storybook" x="0.318" y="-0" width="150" height="25" style="fill:none;"/><clipPath id="_clip1"><rect x="0.318" y="-0" width="150" height="25"/></clipPath><g clip-path="url(#_clip1)"><path d="M25.318,2.5l-0,20c-0,1.38 -1.121,2.5 -2.5,2.5l-20,0c-1.38,0 -2.5,-1.12 -2.5,-2.5l-0,-20c-0,-1.38 1.12,-2.5 2.5,-2.5l20,0c1.379,0 2.5,1.12 2.5,2.5Z" style="fill:#2f2f2f;"/><path d="M3.443,7.234c-0,2.276 1.809,4.085 4.085,4.085c2.277,0 4.098,-1.809 4.098,-4.085c-0,-2.277 -1.821,-4.109 -4.098,-4.109c-2.276,0 -4.085,1.832 -4.085,4.109Zm1.821,-0c-0,-1.252 1.024,-2.288 2.264,-2.288c1.252,-0 2.277,1.036 2.277,2.288c-0,1.24 -1.025,2.264 -2.277,2.264c-1.24,0 -2.264,-1.024 -2.264,-2.264Z" style="fill:#f1bb72;fill-rule:nonzero;"/><path d="M13.153,10.955c-0.023,0.148 0.08,0.251 0.216,0.251l1.343,-0c0.114,-0 0.205,-0.091 0.216,-0.183l0.501,-3.516l0.023,-0l1.923,3.687c0.034,0.068 0.125,0.125 0.194,0.125l0.205,0c0.056,0 0.159,-0.057 0.193,-0.125l1.912,-3.687l0.023,-0l0.512,3.516c0.011,0.092 0.114,0.183 0.216,0.183l1.343,-0c0.137,-0 0.239,-0.103 0.216,-0.251l-1.286,-7.648c-0.011,-0.102 -0.113,-0.182 -0.204,-0.182l-0.183,0c-0.056,0 -0.159,0.046 -0.193,0.114l-2.64,4.916l-0.023,0l-2.641,-4.916c-0.034,-0.068 -0.136,-0.114 -0.193,-0.114l-0.182,0c-0.091,0 -0.194,0.08 -0.205,0.182l-1.286,7.648Z" style="fill:#f1bb72;fill-rule:nonzero;"/><path d="M4.12,21.545c-0,0.114 0.102,0.216 0.216,0.216l1.354,0c0.126,0 0.217,-0.102 0.217,-0.216l-0,-4.245l0.011,-0l4.496,4.518c0.022,0.023 0.113,0.057 0.147,0.057l0.183,0c0.113,0 0.216,-0.091 0.216,-0.205l-0,-7.659c-0,-0.114 -0.103,-0.217 -0.216,-0.217l-1.366,0c-0.125,0 -0.216,0.103 -0.216,0.217l-0,4.04l-0.012,-0l-4.541,-4.37l-0.284,-0c-0.114,-0 -0.217,0.091 -0.217,0.204l0.012,7.66Z" style="fill:#f1bb72;fill-rule:nonzero;"/><path d="M16.772,21.659c0,0.114 0.102,0.216 0.216,0.216l1.366,0c0.114,0 0.216,-0.102 0.216,-0.216l0,-7.535c0,-0.113 -0.102,-0.216 -0.216,-0.216l-1.366,0c-0.114,0 -0.216,0.103 -0.216,0.216l0,7.535Z" style="fill:#f1bb72;fill-rule:nonzero;"/><path d="M36.505,12.519c-0,3.794 3.016,6.81 6.809,6.81c3.794,-0 6.829,-3.016 6.829,-6.81c0,-3.794 -3.035,-6.848 -6.829,-6.848c-3.793,0 -6.809,3.054 -6.809,6.848Zm2.466,-0c-0,-2.39 1.953,-4.382 4.343,-4.382c2.39,0 4.363,1.992 4.363,4.382c0,2.39 -1.973,4.344 -4.363,4.344c-2.39,-0 -4.343,-1.954 -4.343,-4.344Z" style="fill:#fafafa;fill-rule:nonzero;"/><path d="M51.736,18.779c0,0.189 0.171,0.36 0.361,0.36l1.536,-0c0.19,-0 0.361,-0.171 0.361,-0.36l-0,-4.174c0.189,-0.512 0.645,-1.195 1.593,-1.195c0.967,0 1.404,0.626 1.404,1.613l-0,3.756c-0,0.189 0.151,0.36 0.36,0.36l1.423,-0c0.189,-0 0.36,-0.171 0.36,-0.36l0,-3.851c0,-0.341 -0.019,-0.721 -0.019,-0.721c0,0 0.493,-0.797 1.593,-0.797c0.949,0 1.423,0.626 1.423,1.613l0,3.756c0,0.189 0.152,0.36 0.36,0.36l1.537,-0c0.209,-0 0.36,-0.171 0.36,-0.36l0,-3.623c0,-1.992 -0.891,-3.794 -3.319,-3.794c-1.366,-0 -2.352,0.835 -2.675,1.176c-0.626,-0.759 -1.384,-1.176 -2.466,-1.176c-1.346,-0 -2.219,0.759 -2.541,1.119l-0.266,-0.721c-0.038,-0.114 -0.152,-0.208 -0.322,-0.208l-0.702,-0c-0.19,-0 -0.361,0.151 -0.361,0.36l0,6.867Z" style="fill:#fafafa;fill-rule:nonzero;"/><path d="M66.513,18.779c-0,0.189 0.171,0.36 0.36,0.36l1.404,-0c0.36,-0 0.474,-0.095 0.474,-0.36l0,-4.174c0.19,-0.512 0.797,-1.195 1.783,-1.195c0.911,0 1.423,0.626 1.423,1.613l-0,3.756c-0,0.189 0.151,0.36 0.36,0.36l1.556,-0c0.189,-0 0.36,-0.171 0.36,-0.36l-0,-3.642c-0,-1.973 -0.967,-3.775 -3.376,-3.775c-1.461,-0 -2.39,0.816 -2.675,1.119l-0.266,-0.702c-0.056,-0.133 -0.151,-0.227 -0.322,-0.227l-0.721,-0c-0.189,-0 -0.36,0.151 -0.36,0.36l-0,6.867Z" style="fill:#fafafa;fill-rule:nonzero;"/><path d="M77.477,8.858c0.739,0 1.327,-0.588 1.327,-1.309c0,-0.721 -0.588,-1.309 -1.327,-1.309c-0.721,0 -1.29,0.588 -1.29,1.309c-0,0.721 0.569,1.309 1.29,1.309Zm-1.12,9.921c0,0.189 0.171,0.36 0.361,0.36l1.574,-0c0.19,-0 0.361,-0.171 0.361,-0.36l-0,-6.867c-0,-0.209 -0.171,-0.36 -0.361,-0.36l-1.574,-0c-0.19,-0 -0.361,0.151 -0.361,0.36l0,6.867Z" style="fill:#fafafa;fill-rule:nonzero;"/><path d="M80.91,14.112c-0,2.884 2.295,5.217 5.273,5.217c2.997,-0 5.292,-2.333 5.292,-5.217l0,-7.891c0,-0.189 -0.17,-0.36 -0.36,-0.36l-1.802,0c-0.209,0 -0.361,0.171 -0.361,0.36l0,7.778c0,1.593 -1.119,2.864 -2.769,2.864c-1.65,-0 -2.75,-1.271 -2.75,-2.883l-0,-7.759c-0,-0.189 -0.152,-0.36 -0.361,-0.36l-1.802,0c-0.189,0 -0.36,0.171 -0.36,0.36l-0,7.891Z" style="fill:#fafafa;fill-rule:nonzero;"/><path d="M94.738,18.779c-0,0.189 0.171,0.36 0.36,0.36l1.764,-0c0.19,-0 0.361,-0.171 0.361,-0.36l-0,-12.558c-0,-0.189 -0.171,-0.36 -0.361,-0.36l-1.764,0c-0.189,0 -0.36,0.171 -0.36,0.36l-0,12.558Z" style="fill:#fafafa;fill-rule:nonzero;"/></g></svg>